<svg version="1.1" xmlns="http://www.w3.org/2000/svg" xmlns:xlink="http://www.w3.org/1999/xlink" width="66.48182" height="79.89818" viewBox="0,0,66.48182,79.89818"><g transform="translate(-203.62965,-130.51021)"><g data-paper-data="{&quot;isPaintingLayer&quot;:true}" fill-rule="nonzero" stroke-width="3.5" stroke-linejoin="miter" stroke-miterlimit="10" stroke-dasharray="" stroke-dashoffset="0" style="mix-blend-mode: normal"><path d="" fill="none" stroke="#3600a2" stroke-linecap="round"/><path d="M268.36147,171.25275c0,22.41141 -14.0811,37.17893 -31.17137,37.17893c-8.70887,0 -15.83851,-4.51483 -21.40402,-11.24164c-5.35623,-6.47387 -9.31394,-14.94631 -9.31394,-25.93729c0,-22.41141 13.8544,-38.99254 30.94466,-38.99254c8.09643,0 13.87971,4.40148 19.39465,10.70115c6.12621,6.99793 11.55002,16.49728 11.55002,28.29139z" fill="#3600a2" stroke="#0f002e" stroke-linecap="butt"/><path d="M234.35634,208.65839l7.02773,-0.2267l8.61463,-3.17381l6.12093,-3.62722l6.34762,-7.25442l4.08062,-9.97484c0,0 1.28106,-4.40758 1.37296,-7.01127c0.12466,-3.53201 -0.69286,-12.2583 -0.69286,-12.2583c0,0 -5.67264,5.70423 -7.55618,8.09005c-1.2441,1.57586 -4.45897,4.6052 -4.45897,4.6052c0,0 0.92765,2.4136 1.27909,3.86623c0.62061,2.56519 3.93504,10.41593 3.93504,10.41593l-12.69525,-1.13351c0,0 -2.24532,4.99382 -3.03438,7.5113c-0.3816,1.21749 0.79376,5.52068 0.46825,7.07723c-0.35499,1.69747 -2.19458,0.60043 -2.19458,0.60043c0,0 -4.0503,-5.85037 -5.63178,-7.51508c-1.15095,-1.21152 -4.79646,-3.81995 -4.79646,-3.81995c0,0 -1.03812,4.05731 -1.22287,5.68312c-0.19275,1.69615 1.90297,6.55872 1.90297,6.55872" fill="#5000f1" stroke="#0f002e" stroke-linecap="round"/><path d="M230.01496,133.44456l-6.5058,2.02822l-7.50724,7.09813l-4.98087,5.08069c0,0 -2.30913,4.80579 -3.12946,7.61708c-1.01738,3.48659 -2.51194,11.71606 -2.51194,11.71606c0,0 -0.10324,4.58881 0.47824,7.12841c0.78879,3.44506 3.82519,11.66679 3.82519,11.66679c0,0 4.013,-6.9723 5.21887,-9.76259c0.79649,-1.84302 3.80602,-5.35005 3.80602,-5.35005c0,0 -2.20059,-2.34126 -2.91414,-3.65446c-1.26005,-2.31897 -6.48381,-9.05186 -6.48381,-9.05186l12.55918,-2.17287c0,0 0.88408,-5.40353 0.99847,-8.03929c0.05532,-1.27469 -2.18821,-5.13027 -2.27437,-6.71816c-0.09396,-1.73165 1.96604,-1.14515 1.96604,-1.14515c0,0 5.41986,4.61052 7.37659,5.812c1.42405,0.8744 5.61819,2.45645 5.61819,2.45645c0,0 -0.04135,-4.18781 -0.28137,-5.80639c-0.25039,-1.6886 -3.52726,-5.84778 -3.52726,-5.84778" fill="#5000f1" stroke="#0f002e" stroke-linecap="round"/></g></g></svg>